<svg width="32" height="24" viewBox="0 0 22 20" fill="currentColor" xmlns="http://www.w3.org/2000/svg">
  <path
    d="M18.98 2.69012C17.3 1.35012 14.9 0.980117 13.86 0.870117H13.82C13.66 0.870117 13.51 0.960117 13.46 1.11012C13.37 1.34012 13.51 1.59012 13.74 1.63012C14.91 1.87012 16.26 2.29012 17.49 3.06012C17.74 3.21012 17.8 3.55012 17.6 3.78012C17.44 3.96012 17.17 3.98012 16.96 3.86012C14.56 2.38012 11.58 2.30012 11 2.30012C10.42 2.30012 7.44 2.38012 5.04 3.86012C4.83 3.98012 4.56 3.96012 4.4 3.78012C4.2 3.55012 4.26 3.21012 4.51 3.06012C5.74 2.29012 7.09 1.87012 8.26 1.63012C8.49 1.59012 8.63 1.34012 8.54 1.11012C8.49 0.960117 8.34 0.870117 8.18 0.870117H8.14C7.1 0.980117 4.7 1.35012 3.02 2.69012C2.04 3.60012 0.09 8.83012 0 13.4601C0 13.7701 0.08 14.0801 0.26 14.3301C1.43 15.9801 3.97 16.9701 5.89 17.1101C6.18 17.1301 6.46 17.0001 6.63 16.7601C6.64 16.7601 6.64 16.7501 6.65 16.7401C7 16.2601 6.79 15.5801 6.23 15.3701C4.63 14.7801 3.81 14.0801 3.76 14.0301C3.56 13.8501 3.54 13.5501 3.71 13.3501C3.89 13.1501 4.19 13.1301 4.39 13.3101C4.42 13.3301 6.64 15.2201 11 15.2201C15.36 15.2201 17.58 13.3301 17.61 13.3101C17.81 13.1301 18.11 13.1501 18.29 13.3501C18.46 13.5501 18.44 13.8501 18.24 14.0301C18.19 14.0801 17.37 14.7801 15.77 15.3701C15.21 15.5801 15 16.2601 15.35 16.7401C15.36 16.7501 15.36 16.7601 15.37 16.7601C15.54 17.0001 15.82 17.1301 16.11 17.1101C18.03 16.9701 20.57 15.9801 21.74 14.3301C21.92 14.0801 22 13.7701 22 13.4601C21.91 8.83012 19.96 3.60012 18.98 2.69012ZM7.89 11.8701C6.97 11.8701 6.22 11.0101 6.22 9.96012C6.22 8.90012 6.97 8.04012 7.89 8.04012C8.82 8.04012 9.56 8.90012 9.56 9.96012C9.56 11.0101 8.82 11.8701 7.89 11.8701ZM14.11 11.8701C13.18 11.8701 12.44 11.0101 12.44 9.96012C12.44 8.90012 13.18 8.04012 14.11 8.04012C15.03 8.04012 15.78 8.90012 15.78 9.96012C15.78 11.0101 15.03 11.8701 14.11 11.8701Z"
    fill="currentColor"></path>
</svg>