<svg width="128" height="128" viewBox="0 0 128 128" fill="none" xmlns="http://www.w3.org/2000/svg">
<g clip-path="url(#clip0_1043_29754)">
<rect width="128" height="128" fill="#CBD5E1"/>
<rect x="56" y="103.999" width="3.99998" height="4" fill="#94A3B8"/>
<rect x="88" y="91.9993" width="3.99998" height="4" fill="#CBD5E1"/>
<rect x="84" y="79.9994" width="3.99998" height="3.99999" fill="#CBD5E1"/>
<rect x="84" y="51.9994" width="3.99998" height="3.99999" fill="#94A3B8"/>
<rect x="88" y="51.9994" width="3.99998" height="3.99999" fill="#94A3B8"/>
<rect x="88" y="83.9993" width="3.99998" height="3.99999" fill="#CBD5E1"/>
<rect x="84" y="59.9994" width="3.99998" height="3.99999" fill="#CBD5E1"/>
<rect x="64" y="107.999" width="3.99998" height="3.99999" fill="#CBD5E1"/>
<rect x="92" y="63.9994" width="3.99998" height="3.99999" fill="#CBD5E1"/>
<rect x="84" y="75.9994" width="3.99998" height="3.99999" fill="#CBD5E1"/>
<rect x="92" y="91.9993" width="3.99998" height="4" fill="#CBD5E1"/>
<rect x="84" y="63.9994" width="3.99998" height="3.99999" fill="#CBD5E1"/>
<rect x="80" y="71.9994" width="3.99998" height="3.99999" fill="#CBD5E1"/>
<rect x="80" y="55.9994" width="3.99998" height="3.99999" fill="#94A3B8"/>
<rect x="88" y="63.9994" width="3.99998" height="3.99999" fill="#CBD5E1"/>
<rect x="88" y="87.9993" width="3.99998" height="3.99999" fill="#CBD5E1"/>
<rect x="68" y="123.999" width="3.99998" height="3.99999" fill="#CBD5E1"/>
<rect x="68" y="115.999" width="3.99998" height="3.99999" fill="#CBD5E1"/>
<rect x="84" y="55.9994" width="3.99998" height="3.99999" fill="#CBD5E1"/>
<path d="M56 51.9994H60V55.9994C58.4379 55.9994 57.5621 55.9994 56 55.9994V51.9994Z" fill="#CBD5E1"/>
<rect x="60" y="63.9994" width="3.99998" height="3.99999" fill="#CBD5E1"/>
<rect x="36" y="55.9994" width="3.99998" height="3.99999" fill="#CBD5E1"/>
<rect x="44" y="47.9994" width="3.99998" height="3.99999" fill="#CBD5E1"/>
<rect x="48" y="47.9994" width="3.99998" height="3.99999" fill="#CBD5E1"/>
<rect x="52" y="47.9994" width="3.99998" height="3.99999" fill="#CBD5E1"/>
<rect x="40" y="51.9994" width="3.99998" height="3.99999" fill="#CBD5E1"/>
<rect x="40" y="47.9994" width="3.99998" height="3.99999" fill="#94A3B8"/>
<rect x="36" y="51.9994" width="3.99998" height="3.99999" fill="#94A3B8"/>
<rect x="36" y="59.9994" width="3.99998" height="3.99999" fill="#CBD5E1"/>
<rect x="36" y="63.9994" width="3.99998" height="3.99999" fill="#CBD5E1"/>
<rect x="40" y="63.9994" width="3.99998" height="3.99999" fill="#CBD5E1"/>
<rect x="40" y="67.9994" width="3.99998" height="3.99999" fill="#CBD5E1"/>
<rect x="44" y="67.9994" width="3.99998" height="3.99999" fill="#CBD5E1"/>
<rect x="48" y="67.9994" width="3.99998" height="3.99999" fill="#CBD5E1"/>
<rect x="56" y="67.9994" width="3.99998" height="3.99999" fill="#CBD5E1"/>
<rect x="52" y="67.9994" width="3.99998" height="3.99999" fill="#CBD5E1"/>
<rect x="52" y="71.9994" width="3.99998" height="3.99999" fill="#CBD5E1"/>
<rect x="72" y="87.9993" width="3.99998" height="3.99999" fill="#CBD5E1"/>
<rect x="64" y="67.9994" width="3.99998" height="3.99999" fill="#CBD5E1"/>
<rect x="80" y="75.9994" width="3.99998" height="3.99999" fill="#CBD5E1"/>
<rect x="60" y="67.9994" width="3.99998" height="3.99999" fill="#CBD5E1"/>
<rect x="88" y="99.9993" width="3.99998" height="3.99999" fill="#CBD5E1"/>
<rect x="56" y="63.9994" width="3.99998" height="3.99999" fill="#CBD5E1"/>
<rect x="92" y="99.9993" width="3.99998" height="3.99999" fill="#CBD5E1"/>
<rect x="76" y="67.9994" width="3.99998" height="3.99999" fill="#CBD5E1"/>
<rect x="72" y="67.9994" width="3.99998" height="3.99999" fill="#CBD5E1"/>
<rect x="68" y="67.9994" width="3.99998" height="3.99999" fill="#CBD5E1"/>
<rect x="60" y="71.9994" width="3.99998" height="3.99999" fill="#CBD5E1"/>
<rect x="60" y="79.9994" width="3.99998" height="3.99999" fill="#CBD5E1"/>
<rect x="56" y="75.9994" width="3.99998" height="3.99999" fill="#CBD5E1"/>
<rect x="56" y="87.9993" width="3.99998" height="3.99999" fill="#CBD5E1"/>
<rect x="56" y="91.9993" width="3.99998" height="4" fill="#CBD5E1"/>
<rect x="56" y="83.9993" width="3.99998" height="3.99999" fill="#CBD5E1"/>
<rect x="64" y="95.9993" width="3.99998" height="3.99999" fill="#CBD5E1"/>
<rect x="72" y="83.9993" width="3.99998" height="3.99999" fill="#CBD5E1"/>
<rect x="72" y="79.9994" width="3.99998" height="3.99999" fill="#CBD5E1"/>
<rect x="64" y="99.9993" width="3.99998" height="3.99999" fill="#CBD5E1"/>
<rect x="64" y="91.9993" width="3.99998" height="4" fill="#CBD5E1"/>
<rect x="68" y="91.9993" width="3.99998" height="4" fill="#CBD5E1"/>
<rect x="76" y="91.9993" width="3.99998" height="4" fill="#CBD5E1"/>
<rect x="72" y="99.9993" width="3.99998" height="3.99999" fill="#CBD5E1"/>
<rect x="80" y="95.9993" width="3.99998" height="3.99999" fill="#CBD5E1"/>
<rect x="84" y="95.9993" width="3.99998" height="3.99999" fill="#CBD5E1"/>
<rect x="92" y="95.9993" width="3.99998" height="3.99999" fill="#CBD5E1"/>
<rect x="88" y="95.9993" width="3.99998" height="3.99999" fill="#CBD5E1"/>
<rect x="76" y="99.9993" width="3.99998" height="3.99999" fill="#CBD5E1"/>
<rect x="84" y="91.9993" width="3.99998" height="4" fill="#CBD5E1"/>
<rect x="80" y="91.9993" width="3.99998" height="4" fill="#CBD5E1"/>
<rect x="68" y="99.9993" width="3.99998" height="3.99999" fill="#CBD5E1"/>
<rect x="72" y="95.9993" width="3.99998" height="3.99999" fill="#CBD5E1"/>
<rect x="68" y="95.9993" width="3.99998" height="3.99999" fill="#CBD5E1"/>
<rect x="84" y="87.9993" width="3.99998" height="3.99999" fill="#CBD5E1"/>
<rect x="76" y="87.9993" width="3.99998" height="3.99999" fill="#CBD5E1"/>
<rect x="80" y="87.9993" width="3.99998" height="3.99999" fill="#CBD5E1"/>
<rect x="72" y="91.9993" width="3.99998" height="4" fill="#CBD5E1"/>
<rect x="64" y="87.9993" width="3.99998" height="3.99999" fill="#CBD5E1"/>
<rect x="68" y="87.9993" width="3.99998" height="3.99999" fill="#CBD5E1"/>
<rect x="96" y="63.9994" width="3.99998" height="3.99999" fill="#CBD5E1"/>
<rect x="84" y="83.9993" width="3.99998" height="3.99999" fill="#CBD5E1"/>
<rect x="92" y="59.9994" width="3.99998" height="3.99999" fill="#CBD5E1"/>
<rect x="88" y="59.9994" width="3.99998" height="3.99999" fill="#CBD5E1"/>
<rect x="88" y="55.9994" width="3.99998" height="3.99999" fill="#CBD5E1"/>
<rect x="92" y="55.9994" width="3.99998" height="3.99999" fill="#CBD5E1"/>
<rect x="96" y="59.9994" width="3.99998" height="3.99999" fill="#CBD5E1"/>
<rect x="96" y="55.9994" width="3.99998" height="3.99999" fill="#CBD5E1"/>
<rect x="92" y="51.9994" width="3.99998" height="3.99999" fill="#CBD5E1"/>
<rect x="60" y="95.9993" width="3.99998" height="3.99999" fill="#CBD5E1"/>
<rect x="52" y="115.999" width="3.99998" height="3.99999" fill="#CBD5E1"/>
<rect x="60" y="119.999" width="3.99998" height="3.99999" fill="#E2E8F0"/>
<rect x="56" y="119.999" width="3.99998" height="3.99999" fill="#E2E8F0"/>
<rect x="60" y="111.999" width="3.99998" height="3.99999" fill="#E2E8F0"/>
<rect x="56" y="111.999" width="3.99998" height="3.99999" fill="#E2E8F0"/>
<rect x="64" y="123.999" width="3.99998" height="3.99999" fill="#E2E8F0"/>
<rect x="56" y="123.999" width="3.99998" height="3.99999" fill="#E2E8F0"/>
<rect x="60" y="115.999" width="3.99998" height="3.99999" fill="#E2E8F0"/>
<rect x="64" y="111.999" width="3.99998" height="3.99999" fill="#E2E8F0"/>
<rect x="64" y="119.999" width="3.99998" height="3.99999" fill="#E2E8F0"/>
<rect x="48" y="123.999" width="3.99998" height="3.99999" fill="#CBD5E1"/>
<rect x="56" y="95.9993" width="3.99998" height="3.99999" fill="#CBD5E1"/>
<rect x="48" y="119.999" width="3.99998" height="3.99999" fill="#CBD5E1"/>
<rect x="52" y="123.999" width="3.99998" height="3.99999" fill="#CBD5E1"/>
<rect x="52" y="111.999" width="3.99998" height="3.99999" fill="#CBD5E1"/>
<rect x="52" y="107.999" width="3.99998" height="3.99999" fill="#94A3B8"/>
<rect x="52" y="103.999" width="3.99998" height="4" fill="#94A3B8"/>
<rect x="48" y="115.999" width="3.99998" height="3.99999" fill="#CBD5E1"/>
<rect x="48" y="111.999" width="3.99998" height="3.99999" fill="#94A3B8"/>
<rect x="60" y="91.9993" width="3.99998" height="4" fill="#CBD5E1"/>
<rect x="60" y="87.9993" width="3.99998" height="3.99999" fill="#CBD5E1"/>
<rect x="60" y="83.9993" width="3.99998" height="3.99999" fill="#CBD5E1"/>
<rect x="56" y="79.9994" width="3.99998" height="3.99999" fill="#CBD5E1"/>
<rect x="56" y="71.9994" width="3.99998" height="3.99999" fill="#CBD5E1"/>
<rect x="64" y="71.9994" width="3.99998" height="3.99999" fill="#CBD5E1"/>
<rect x="76" y="75.9994" width="3.99998" height="3.99999" fill="#CBD5E1"/>
<rect x="72" y="75.9994" width="3.99998" height="3.99999" fill="#CBD5E1"/>
<rect x="68" y="75.9994" width="3.99998" height="3.99999" fill="#CBD5E1"/>
<rect x="64" y="75.9994" width="3.99998" height="3.99999" fill="#CBD5E1"/>
<rect x="76" y="71.9994" width="3.99998" height="3.99999" fill="#CBD5E1"/>
<rect x="72" y="71.9994" width="3.99998" height="3.99999" fill="#CBD5E1"/>
<rect x="68" y="71.9994" width="3.99998" height="3.99999" fill="#CBD5E1"/>
<rect x="60" y="75.9994" width="3.99998" height="3.99999" fill="#CBD5E1"/>
<rect x="80" y="59.9994" width="3.99998" height="3.99999" fill="#94A3B8"/>
<rect x="88" y="67.9994" width="3.99998" height="3.99999" fill="#CBD5E1"/>
<rect x="84" y="67.9994" width="3.99998" height="3.99999" fill="#94A3B8"/>
<rect x="96" y="95.9993" width="3.99998" height="3.99999" fill="#94A3B8"/>
<rect x="80" y="63.9994" width="3.99998" height="3.99999" fill="#94A3B8"/>
<rect x="56" y="55.9994" width="3.99998" height="3.99999" fill="#CBD5E1"/>
<rect x="56" y="59.9994" width="3.99998" height="3.99999" fill="#CBD5E1"/>
<rect x="60" y="59.9994" width="3.99998" height="3.99999" fill="#CBD5E1"/>
<rect x="52" y="51.9994" width="3.99998" height="3.99999" fill="#CBD5E1"/>
<rect x="68" y="111.999" width="3.99998" height="3.99999" fill="#CBD5E1"/>
<rect x="60" y="107.999" width="3.99998" height="3.99999" fill="#CBD5E1"/>
<rect x="68" y="107.999" width="3.99998" height="3.99999" fill="#CBD5E1"/>
<rect x="56" y="107.999" width="3.99998" height="3.99999" fill="#CBD5E1"/>
<rect x="60" y="123.999" width="3.99998" height="3.99999" fill="#E2E8F0"/>
<path d="M51.999 120H55.999V124H51.999V120Z" fill="#475569"/>
<path d="M55.999 116H59.999V120H55.999V116Z" fill="#475569"/>
<path d="M63.999 116H67.999V120H63.999V116Z" fill="#475569"/>
<path d="M67.999 120H71.999V124H67.999V120Z" fill="#475569"/>
<rect x="84" y="100" width="3.99998" height="3.99999" fill="#475569"/>
<rect x="79.999" y="100" width="3.99998" height="3.99999" fill="#475569"/>
<rect x="76" y="95.9995" width="3.99998" height="3.99999" fill="#475569"/>
<rect x="68" y="83.9993" width="3.99998" height="3.99999" fill="#475569"/>
<rect x="76.001" y="83.9993" width="3.99998" height="3.99999" fill="#475569"/>
<rect x="80.001" y="83.9993" width="3.99998" height="3.99999" fill="#475569"/>
<rect x="80.001" y="80.0001" width="3.99998" height="3.99999" fill="#475569"/>
<rect x="64.001" y="83.9993" width="3.99998" height="3.99999" fill="#475569"/>
<rect x="68.001" y="80.0001" width="3.99998" height="3.99999" fill="#475569"/>
<rect x="76.001" y="80.0001" width="3.99998" height="3.99999" fill="white"/>
<rect x="76.001" y="80.0001" width="3.99998" height="3.99999" fill="white"/>
<rect x="64.001" y="79.9999" width="3.99998" height="3.99999" fill="white"/>
<rect x="64.001" y="79.9999" width="3.99998" height="3.99999" fill="white"/>
<rect x="68" y="83.9993" width="3.99998" height="3.99999" fill="#475569"/>
<rect x="76.001" y="83.9993" width="3.99998" height="3.99999" fill="#475569"/>
<rect x="80.001" y="83.9993" width="3.99998" height="3.99999" fill="#475569"/>
<rect x="80.001" y="80.0001" width="3.99998" height="3.99999" fill="#475569"/>
<rect x="64.001" y="83.9993" width="3.99998" height="3.99999" fill="#475569"/>
<rect x="68.001" y="80.0001" width="3.99998" height="3.99999" fill="#475569"/>
<rect x="76.001" y="80.0001" width="3.99998" height="3.99999" fill="white"/>
<rect x="76.001" y="80.0001" width="3.99998" height="3.99999" fill="white"/>
<rect x="64.001" y="79.9999" width="3.99998" height="3.99999" fill="white"/>
<rect x="64.001" y="79.9999" width="3.99998" height="3.99999" fill="white"/>
<rect x="96" y="100" width="3.99998" height="3.99999" fill="#DDD6FE"/>
<rect x="36" y="116" width="3.99998" height="3.99999" fill="#475569"/>
<rect x="36" y="120" width="3.99998" height="3.99999" fill="#475569"/>
<rect x="44" y="120" width="3.99998" height="3.99999" fill="#475569"/>
<rect x="44" y="116" width="3.99998" height="3.99999" fill="#475569"/>
<rect x="47.999" y="100" width="3.99998" height="3.99999" fill="#475569"/>
<rect x="52" y="100" width="3.99998" height="3.99999" fill="#475569"/>
<rect x="52" y="95.9995" width="3.99998" height="3.99999" fill="#475569"/>
<rect x="52" y="80" width="3.99998" height="3.99999" fill="#475569"/>
<rect x="52" y="76.0007" width="3.99998" height="3.99999" fill="#475569"/>
<rect x="52" y="76.0007" width="3.99998" height="3.99999" fill="#475569"/>
<rect x="44" y="71.9995" width="3.99998" height="3.99998" fill="#475569"/>
<rect x="47.999" y="71.9995" width="3.99998" height="3.99998" fill="#475569"/>
<rect x="52" y="83.9993" width="3.99998" height="3.99999" fill="#475569"/>
<rect x="52" y="88.0007" width="3.99998" height="3.99999" fill="#475569"/>
<rect x="52" y="92.0002" width="3.99998" height="3.99999" fill="#475569"/>
<rect x="44" y="108" width="3.99998" height="3.99999" fill="#475569"/>
<rect x="44" y="112.001" width="3.99998" height="3.99999" fill="#475569"/>
<rect x="24" y="95.9995" width="3.99998" height="3.99999" fill="#475569"/>
<rect x="28" y="104" width="3.99998" height="3.99998" fill="#475569"/>
<rect x="24" y="100" width="3.99998" height="3.99999" fill="#475569"/>
<rect x="24" y="92.0002" width="3.99998" height="3.99999" fill="#475569"/>
<rect x="40" y="71.9995" width="3.99998" height="3.99998" fill="#475569"/>
<rect x="36" y="67.9999" width="3.99998" height="3.99998" fill="#475569"/>
<rect x="32" y="64.0006" width="3.99998" height="3.99999" fill="#475569"/>
<rect x="32" y="59.9995" width="3.99998" height="3.99999" fill="#475569"/>
<rect x="32" y="56.0001" width="3.99998" height="3.99999" fill="#475569"/>
<rect x="79.999" y="67.9999" width="3.99998" height="3.99998" fill="#475569"/>
<rect x="40" y="44" width="3.99998" height="3.99999" fill="#475569"/>
<rect x="44" y="44" width="3.99998" height="3.99999" fill="#475569"/>
<rect x="56" y="47.9993" width="3.99998" height="3.99999" fill="#475569"/>
<rect x="64" y="59.9995" width="3.99998" height="3.99999" fill="#475569"/>
<rect x="79.999" y="52.0005" width="3.99998" height="3.99999" fill="#475569"/>
<rect x="84" y="47.9993" width="3.99998" height="3.99999" fill="#475569"/>
<rect x="79.999" y="47.9993" width="3.99998" height="3.99999" fill="#475569"/>
<rect x="88" y="47.9993" width="3.99998" height="3.99999" fill="#475569"/>
<rect x="91.999" y="47.9993" width="3.99998" height="3.99999" fill="#475569"/>
<rect x="100" y="56.0001" width="3.99998" height="3.99999" fill="#475569"/>
<rect x="96" y="67.9999" width="3.99998" height="3.99998" fill="#475569"/>
<rect x="88" y="71.9995" width="3.99998" height="3.99998" fill="#475569"/>
<rect x="84" y="71.9995" width="3.99998" height="3.99998" fill="#475569"/>
<rect x="88" y="76.0007" width="3.99998" height="3.99999" fill="#475569"/>
<rect x="72" y="104" width="3.99998" height="3.99998" fill="#475569"/>
<rect x="100" y="104" width="3.99998" height="3.99998" fill="#475569"/>
<rect x="96" y="104" width="3.99998" height="3.99998" fill="#475569"/>
<rect x="76" y="56.0001" width="3.99998" height="3.99999" fill="#475569"/>
<rect x="52" y="59.9995" width="3.99998" height="3.99999" fill="#475569"/>
<rect x="52" y="56.0001" width="3.99998" height="3.99999" fill="#475569"/>
<rect x="47.999" y="52.0005" width="3.99998" height="3.99999" fill="#475569"/>
<rect x="44" y="52.0005" width="3.99998" height="3.99999" fill="#475569"/>
<rect x="40" y="56.0001" width="3.99998" height="3.99999" fill="#475569"/>
<rect x="40" y="59.9995" width="3.99998" height="3.99999" fill="#475569"/>
<rect x="44" y="64.0006" width="3.99998" height="3.99999" fill="#475569"/>
<rect x="47.999" y="64.0006" width="3.99998" height="3.99999" fill="#475569"/>
<rect x="47.999" y="44" width="3.99998" height="3.99999" fill="#475569"/>
<rect x="52" y="44" width="3.99998" height="3.99999" fill="#475569"/>
<rect x="28" y="108" width="3.99998" height="3.99999" fill="#475569"/>
<rect x="36" y="92.0002" width="3.99998" height="3.99999" fill="#475569"/>
<rect x="32" y="95.9995" width="3.99998" height="3.99999" fill="#475569"/>
<path d="M32 88.0007H36V92.0007H32V88.0007Z" fill="#475569"/>
<rect x="32" y="112.001" width="3.99998" height="3.99999" fill="#475569"/>
<rect x="36" y="116" width="3.99998" height="3.99999" fill="#475569"/>
<path d="M40 124.001H44V128.001H40V124.001Z" fill="#475569"/>
<rect x="36" y="124.001" width="3.99998" height="3.99998" fill="#475569"/>
<rect x="28" y="88.0007" width="3.99998" height="3.99999" fill="#475569"/>
<rect x="52" y="95.9995" width="3.99998" height="3.99999" fill="#475569"/>
<rect x="52" y="80" width="3.99998" height="3.99999" fill="#475569"/>
<rect x="52" y="76.0007" width="3.99998" height="3.99999" fill="#475569"/>
<rect x="52" y="76.0007" width="3.99998" height="3.99999" fill="#475569"/>
<rect x="44" y="71.9995" width="3.99998" height="3.99998" fill="#475569"/>
<rect x="47.999" y="71.9995" width="3.99998" height="3.99998" fill="#475569"/>
<rect x="52" y="83.9993" width="3.99998" height="3.99999" fill="#475569"/>
<rect x="52" y="88.0007" width="3.99998" height="3.99999" fill="#475569"/>
<rect x="52" y="92.0002" width="3.99998" height="3.99999" fill="#475569"/>
<rect x="47.999" y="104" width="3.99998" height="3.99998" fill="#475569"/>
<rect x="47.999" y="108" width="3.99998" height="3.99999" fill="#475569"/>
<rect x="44" y="108" width="3.99998" height="3.99999" fill="#475569"/>
<rect x="44" y="112.001" width="3.99998" height="3.99999" fill="#475569"/>
<rect x="24" y="95.9995" width="3.99998" height="3.99999" fill="#475569"/>
<rect x="24" y="104" width="3.99998" height="3.99998" fill="#475569"/>
<rect x="24" y="100" width="3.99998" height="3.99999" fill="#475569"/>
<rect x="24" y="92.0002" width="3.99998" height="3.99999" fill="#475569"/>
<rect x="40" y="71.9995" width="3.99998" height="3.99998" fill="#475569"/>
<rect x="36" y="67.9999" width="3.99998" height="3.99998" fill="#475569"/>
<rect x="32" y="64.0006" width="3.99998" height="3.99999" fill="#475569"/>
<rect x="32" y="59.9995" width="3.99998" height="3.99999" fill="#475569"/>
<rect x="32" y="56.0001" width="3.99998" height="3.99999" fill="#475569"/>
<rect x="32" y="52.0005" width="3.99998" height="3.99999" fill="#475569"/>
<rect x="36" y="47.9993" width="3.99998" height="3.99999" fill="#475569"/>
<rect x="40" y="44" width="3.99998" height="3.99999" fill="#475569"/>
<rect x="44" y="44" width="3.99998" height="3.99999" fill="#475569"/>
<rect x="56" y="44" width="3.99998" height="3.99999" fill="#475569"/>
<rect x="60" y="52.0005" width="3.99998" height="3.99999" fill="#475569"/>
<rect x="64" y="64.0006" width="3.99998" height="3.99999" fill="#475569"/>
<rect x="68" y="64.0006" width="3.99998" height="3.99999" fill="#475569"/>
<rect x="72" y="64.0006" width="3.99998" height="3.99999" fill="#475569"/>
<rect x="79.999" y="52.0005" width="3.99998" height="3.99999" fill="#475569"/>
<rect x="84" y="47.9993" width="3.99998" height="3.99999" fill="#475569"/>
<rect x="79.999" y="47.9993" width="3.99998" height="3.99999" fill="#475569"/>
<rect x="88" y="47.9993" width="3.99998" height="3.99999" fill="#475569"/>
<rect x="100" y="59.9995" width="3.99998" height="3.99999" fill="#475569"/>
<rect x="100" y="64.0006" width="3.99998" height="3.99999" fill="#475569"/>
<rect x="91.999" y="67.9999" width="3.99998" height="3.99998" fill="#475569"/>
<rect x="88" y="80" width="3.99998" height="3.99999" fill="#475569"/>
<rect x="56" y="100" width="3.99998" height="3.99999" fill="#475569"/>
<rect x="60" y="100" width="3.99998" height="3.99999" fill="#475569"/>
<rect x="68" y="104" width="3.99998" height="3.99998" fill="#475569"/>
<path d="M84 104H88V108H84V104Z" fill="#475569"/>
<path d="M88 104H92V108H88V104Z" fill="#475569"/>
<rect x="91.999" y="104" width="3.99998" height="3.99998" fill="#475569"/>
<rect x="100" y="100" width="3.99998" height="3.99999" fill="#475569"/>
<rect x="96" y="52.0005" width="3.99998" height="3.99999" fill="#475569"/>
<path d="M91.999 83.9993H95.999V87.9993H91.999V83.9993Z" fill="#475569"/>
<rect x="91.999" y="88.0007" width="3.99998" height="3.99999" fill="#475569"/>
<rect x="96" y="92.0002" width="3.99998" height="3.99999" fill="#475569"/>
<path d="M100 95.9995H104V99.9995H100V95.9995Z" fill="#475569"/>
<rect x="76" y="64.0006" width="3.99998" height="3.99999" fill="#475569"/>
<path d="M79.999 104H83.999V108H79.999V104Z" fill="#475569"/>
<path d="M76 104H80V108H76V104Z" fill="#475569"/>
<rect x="64" y="104" width="3.99998" height="3.99998" fill="#475569"/>
<path d="M60 104H64V108H60V104Z" fill="#475569"/>
<rect x="76" y="56.0001" width="3.99998" height="3.99999" fill="#475569"/>
<rect x="76" y="59.9995" width="3.99998" height="3.99999" fill="#475569"/>
<rect x="60" y="56.0001" width="3.99998" height="3.99999" fill="#475569"/>
<rect x="52" y="64.0006" width="3.99998" height="3.99999" fill="#475569"/>
<rect x="47.999" y="44" width="3.99998" height="3.99999" fill="#475569"/>
<rect x="52" y="44" width="3.99998" height="3.99999" fill="#475569"/>
<rect x="72" y="120" width="3.99998" height="3.99999" fill="#475569"/>
<path d="M72 116H76V120H72V116Z" fill="#475569"/>
<rect x="44" y="124.001" width="3.99998" height="3.99998" fill="#475569"/>
<rect x="72" y="124.001" width="3.99998" height="3.99998" fill="#475569"/>
<rect x="72" y="112.001" width="3.99998" height="3.99999" fill="#475569"/>
<rect x="72" y="108" width="3.99998" height="3.99999" fill="#475569"/>
<rect x="48" y="55.9999" width="3.99998" height="3.99999" fill="#DDD6FE"/>
<rect x="47.999" y="59.9993" width="3.99998" height="3.99999" fill="#DDD6FE"/>
<rect x="44" y="59.9993" width="3.99998" height="3.99999" fill="#E9D5FF"/>
<rect x="44" y="56" width="3.99998" height="3.99999" fill="#E9D5FF"/>
<rect x="48" y="80" width="4" height="4" fill="black"/>
<rect x="52" y="80" width="4" height="4" fill="black"/>
<rect x="56" y="80" width="4" height="4" fill="black"/>
<rect x="60" y="80" width="4" height="4" fill="black"/>
<rect x="64" y="80" width="4" height="4" fill="black"/>
<rect x="68" y="80" width="4" height="4" fill="black"/>
<rect x="72" y="80" width="4" height="4" fill="black"/>
<rect x="76" y="80" width="4" height="4" fill="black"/>
<rect x="80" y="80" width="4" height="4" fill="black"/>
<rect x="84" y="80" width="4" height="4" fill="black"/>
<rect x="84" y="84" width="4" height="4" fill="black"/>
<rect x="80" y="84" width="4" height="4" fill="black"/>
<rect x="76" y="84" width="4" height="4" fill="black"/>
<rect x="68" y="84" width="4" height="4" fill="black"/>
<rect x="60" y="84" width="4" height="4" fill="black"/>
<rect x="64" y="84" width="4" height="4" fill="black"/>
</g>
<defs>
<clipPath id="clip0_1043_29754">
<rect width="128" height="128" fill="white"/>
</clipPath>
</defs>
</svg>
