<svg width="36" height="36" viewBox="0 0 36 36" fill="none" xmlns="http://www.w3.org/2000/svg">
<path d="M36 28C36 32.4183 32.4183 36 28 36L8 36C3.58172 36 3.13124e-07 32.4183 6.99382e-07 28L2.44784e-06 8C2.8341e-06 3.58172 3.58173 -2.8341e-06 8 -2.44784e-06L28 -6.99382e-07C32.4183 -3.13124e-07 36 3.58172 36 8L36 28Z" fill="white"/>
<path d="M23.833 17.9993L12.1663 17.9993M12.1663 17.9993L15.083 20.916M12.1663 17.9993L15.083 15.0827" stroke="#010125" stroke-width="2.004" stroke-linecap="round" stroke-linejoin="round"/>
<path d="M28 35L8 35L8 37L28 37L28 35ZM1 28L1 8L-0.999998 8L-0.999999 28L1 28ZM8 0.999998L28 0.999999L28 -1L8 -1L8 0.999998ZM35 8L35 28L37 28L37 8L35 8ZM28 0.999999C31.866 1 35 4.13401 35 8L37 8C37 3.02944 32.9706 -1 28 -1L28 0.999999ZM1 8C1 4.134 4.13401 0.999997 8 0.999998L8 -1C3.02944 -1 -0.999997 3.02943 -0.999998 8L1 8ZM8 35C4.13401 35 1 31.866 1 28L-0.999999 28C-1 32.9706 3.02944 37 8 37L8 35ZM28 37C32.9706 37 37 32.9706 37 28L35 28C35 31.866 31.866 35 28 35L28 37Z" fill="#CCCCD3"/>
</svg>
