<svg width="211" height="208" viewBox="0 0 211 208" fill="none" xmlns="http://www.w3.org/2000/svg">
<path d="M185.726 86.0007C185.726 102.369 180.265 117.546 171.114 129.748C166.096 136.295 160.044 142.098 153.107 146.562C141.889 154.003 128.458 158.318 113.993 158.318C74.2882 158.318 42.1113 125.879 42.1113 86.0007C42.1113 45.9733 74.2882 13.6836 113.845 13.6836C128.31 13.6836 141.742 17.9988 152.959 25.29C159.896 29.7541 165.948 35.5573 170.966 42.1045C180.265 54.4549 185.726 69.6326 185.726 86.0007Z" fill="#F5F5F5"/>
<path d="M194.14 63.9777C196.354 61.8945 196.502 58.4721 194.435 56.2401C192.369 54.0081 188.974 53.8593 186.613 55.9425C184.399 58.0257 184.251 61.4481 186.317 63.6801C188.384 65.7633 191.926 65.9121 194.14 63.9777Z" fill="#E6E6E9"/>
<g filter="url(#filter0_d_670_3194)">
<path d="M98.8547 65.0379L57.6148 93.6969C55.2293 95.3388 51.979 94.7716 50.3091 92.3833L22.9352 52.8877C21.2951 50.4995 21.8617 47.2455 24.2472 45.5737L65.4871 16.9147C67.8726 15.2728 71.1229 15.84 72.7928 18.2283L100.197 57.7239C101.837 60.1122 101.24 63.396 98.8547 65.0379Z" fill="url(#paint0_linear_670_3194)"/>
</g>
<path d="M92.4734 60.7095L56.2133 85.9055C55.1994 86.622 53.7979 86.3533 53.0823 85.3383L30.4495 52.679C29.7339 51.664 30.0023 50.2609 31.0161 49.5444L67.2762 24.3484C68.29 23.632 69.6915 23.9006 70.4072 24.9156L93.0399 57.5749C93.7556 58.5899 93.4872 59.993 92.4734 60.7095Z" fill="#E6E6E9"/>
<path d="M66.4995 60.4426L53.2598 69.6374L54.6613 57.5469L66.4995 60.4426Z" fill="#B3B3BE"/>
<path d="M77.4431 52.8293L58.3887 66.084L60.4164 48.6797L77.4431 52.8293Z" fill="#CCCCD3"/>
<path d="M49.4126 56.4709C51.0925 56.4709 52.4542 55.1076 52.4542 53.4259C52.4542 51.7442 51.0925 50.3809 49.4126 50.3809C47.7328 50.3809 46.3711 51.7442 46.3711 53.4259C46.3711 55.1076 47.7328 56.4709 49.4126 56.4709Z" fill="#B3B3BE"/>
<g filter="url(#filter1_d_670_3194)">
<path d="M148.803 89.4276L110.485 56.9475C108.279 55.0667 108.01 51.753 109.859 49.5439L140.901 12.8545C142.779 10.6453 146.089 10.3766 148.296 12.2275L186.613 44.7077C188.82 46.5884 189.088 49.9021 187.24 52.1113L156.198 88.8007C154.319 91.0098 151.009 91.2785 148.803 89.4276Z" fill="url(#paint1_linear_670_3194)"/>
</g>
<path d="M151.337 82.1442L117.642 53.6046C116.688 52.7986 116.568 51.3955 117.373 50.4402L143.018 20.1095C143.823 19.1542 145.224 19.0348 146.179 19.8408L179.874 48.3804C180.829 49.1864 180.948 50.5895 180.143 51.5448L154.498 81.8755C153.693 82.8308 152.292 82.9502 151.337 82.1442Z" fill="#E6E6E9"/>
<path d="M144.868 56.9164L132.582 46.4977L144.629 44.7363L144.868 56.9164Z" fill="#B3B3BE"/>
<path d="M155.066 65.5433L137.354 50.5272L154.678 48.0195L155.066 65.5433Z" fill="#CCCCD3"/>
<path d="M147.252 41.6623C148.932 41.6623 150.294 40.299 150.294 38.6173C150.294 36.9356 148.932 35.5723 147.252 35.5723C145.573 35.5723 144.211 36.9356 144.211 38.6173C144.211 40.299 145.573 41.6623 147.252 41.6623Z" fill="#B3B3BE"/>
<g filter="url(#filter2_d_670_3194)">
<path d="M153.126 152.117L108.039 174.209C105.445 175.492 102.314 174.418 101.032 171.79L79.9198 128.623C78.6376 126.026 79.7111 122.891 82.3352 121.607L127.422 99.5161C130.016 98.2325 133.147 99.3072 134.429 101.934L155.541 145.132C156.794 147.699 155.72 150.834 153.126 152.117Z" fill="url(#paint2_linear_670_3194)"/>
</g>
<path d="M147.459 146.893L107.8 166.327C106.696 166.865 105.325 166.417 104.788 165.282L87.3139 129.578C86.7772 128.474 87.2245 127.1 88.3576 126.563L128.017 107.129C129.12 106.591 130.492 107.039 131.029 108.173L148.503 143.878C149.04 144.982 148.592 146.326 147.459 146.893Z" fill="#E6E6E9"/>
<path d="M121.816 142.684L107.354 149.789L110.574 138.027L121.816 142.684Z" fill="#B3B3BE"/>
<path d="M133.803 136.804L112.959 147.044L117.611 130.117L133.803 136.804Z" fill="#CCCCD3"/>
<path d="M106.01 136.207C107.69 136.207 109.052 134.844 109.052 133.162C109.052 131.48 107.69 130.117 106.01 130.117C104.331 130.117 102.969 131.48 102.969 133.162C102.969 134.844 104.331 136.207 106.01 136.207Z" fill="#B3B3BE"/>
<path d="M114.928 69.9614C119.128 69.9614 122.532 66.5532 122.532 62.3489C122.532 58.1446 119.128 54.7363 114.928 54.7363C110.729 54.7363 107.324 58.1446 107.324 62.3489C107.324 66.5532 110.729 69.9614 114.928 69.9614Z" fill="#808092"/>
<path d="M95.336 62.9483L93.6363 59.3361C93.4872 58.9778 93.3381 58.6196 93.1592 58.2912C91.2209 54.679 87.4041 52.2012 83.0207 52.2012C78.9653 52.2012 75.4168 54.2909 73.3593 57.4852L70.0195 61.9631L71.5999 62.3811C71.5403 62.8289 71.5105 63.3065 71.5105 63.7543C71.5105 70.113 76.6692 75.2776 83.0207 75.2776C89.3722 75.2776 94.5309 70.113 94.5309 63.7543C94.5309 63.5453 94.5309 63.3364 94.5011 63.1274L95.336 62.9483Z" fill="#808092"/>
<path d="M134.52 62.9477L136.219 59.3654C136.368 59.0071 136.517 58.6489 136.696 58.3205C138.635 54.7083 142.451 52.2305 146.835 52.2305C150.89 52.2305 154.439 54.3202 156.496 57.5145L159.836 61.9626L158.256 62.3805C158.315 62.8283 158.345 63.306 158.345 63.7538C158.345 70.1125 153.186 75.2771 146.835 75.2771C140.483 75.2771 135.325 70.1125 135.325 63.7538C135.325 63.5448 135.325 63.3358 135.354 63.1268L134.52 62.9477Z" fill="#808092"/>
<path d="M177.548 100.802C177.548 105.19 176.176 101.787 176.176 101.787L165.859 86.0843L135.235 95.1L129.002 96.921L114.958 82.9498L100.913 96.921L64.0563 86.0843L53.7389 101.787C53.7389 101.787 52.3672 105.16 52.3672 100.802C52.3672 90.7116 59.6132 76.2627 66.084 65.4857C68.9765 60.6495 74.4035 58.0523 79.8903 57.6344C83.8264 57.3358 88.2993 57.9627 91.6688 60.1122C92.3845 60.56 93.7562 61.9332 94.6806 61.7839C99.72 61.0078 105.028 59.8733 108.964 58.9777C112.99 58.0523 117.164 58.0523 121.16 59.0076C125.036 59.9032 130.225 61.0376 135.235 61.8138C136.159 61.963 137.531 60.6197 138.246 60.142C141.616 57.9627 146.089 57.3358 150.025 57.6642C155.512 58.0821 160.939 60.6495 163.831 65.5156C170.302 76.2925 177.548 90.7116 177.548 100.802Z" fill="url(#paint3_linear_670_3194)"/>
<path opacity="0.2" d="M156.525 81.2768L135.205 95.1287L128.973 96.9497L114.928 82.9785V68.4102C120.385 68.4102 129.479 72.4403 133.088 76.0227C138.038 71.9328 145.492 67.9027 156.525 69.9625C167.559 71.9925 156.525 81.2768 156.525 81.2768Z" fill="url(#paint4_linear_670_3194)"/>
<path opacity="0.2" d="M73.3294 81.2768L94.6501 95.1287L100.882 96.9497L114.927 82.9785V68.4102C109.47 68.4102 100.375 72.4403 96.7672 76.0227C91.8172 71.9328 84.3625 67.9027 73.3294 69.9625C62.2963 71.9925 73.3294 81.2768 73.3294 81.2768Z" fill="url(#paint5_linear_670_3194)"/>
<path d="M114.928 86.563C119.128 86.563 122.532 83.1547 122.532 78.9504C122.532 74.7461 119.128 71.3379 114.928 71.3379C110.729 71.3379 107.324 74.7461 107.324 78.9504C107.324 83.1547 110.729 86.563 114.928 86.563Z" fill="#808092"/>
<path d="M77.7722 128.477C91.8364 128.477 103.238 117.063 103.238 102.983C103.238 88.9026 91.8364 77.4883 77.7722 77.4883C63.708 77.4883 52.3066 88.9026 52.3066 102.983C52.3066 117.063 63.708 128.477 77.7722 128.477Z" fill="#CCCCD3"/>
<path d="M77.7721 121.996C88.2627 121.996 96.7669 113.482 96.7669 102.979C96.7669 92.4768 88.2627 83.9629 77.7721 83.9629C67.2816 83.9629 58.7773 92.4768 58.7773 102.979C58.7773 113.482 67.2816 121.996 77.7721 121.996Z" fill="#B3B3BE"/>
<path d="M77.7734 114.771C86.2712 114.771 93.1601 107.875 93.1601 99.3671C93.1601 90.8596 86.2712 83.9629 77.7734 83.9629C69.2756 83.9629 62.3867 90.8596 62.3867 99.3671C62.3867 107.875 69.2756 114.771 77.7734 114.771Z" fill="#808092"/>
<path opacity="0.4" d="M67.6342 100.564C66.9782 100.564 66.4414 100.026 66.4414 99.3696C66.4414 93.1004 71.5405 88.0254 77.7727 88.0254C78.4287 88.0254 78.9654 88.5627 78.9654 89.2195C78.9654 89.8763 78.4287 90.4136 77.7727 90.4136C72.8227 90.4136 68.8269 94.4438 68.8269 99.3696C68.8269 100.026 68.2902 100.564 67.6342 100.564Z" fill="white"/>
<path d="M152.083 128.477C166.147 128.477 177.548 117.063 177.548 102.983C177.548 88.9026 166.147 77.4883 152.083 77.4883C138.019 77.4883 126.617 88.9026 126.617 102.983C126.617 117.063 138.019 128.477 152.083 128.477Z" fill="#CCCCD3"/>
<path d="M152.081 121.996C162.571 121.996 171.076 113.482 171.076 102.979C171.076 92.4768 162.571 83.9629 152.081 83.9629C141.59 83.9629 133.086 92.4768 133.086 102.979C133.086 113.482 141.59 121.996 152.081 121.996Z" fill="#B3B3BE"/>
<path d="M152.082 114.771C160.58 114.771 167.469 107.875 167.469 99.3671C167.469 90.8596 160.58 83.9629 152.082 83.9629C143.584 83.9629 136.695 90.8596 136.695 99.3671C136.695 107.875 143.584 114.771 152.082 114.771Z" fill="#808092"/>
<path opacity="0.4" d="M152.737 89.2195C152.737 88.5627 152.2 88.0254 151.544 88.0254C145.282 88.0254 140.213 93.1303 140.213 99.3696C140.213 100.026 140.75 100.564 141.406 100.564C142.062 100.564 142.598 100.026 142.598 99.3696C142.598 94.414 146.624 90.4136 151.544 90.4136C152.2 90.4136 152.737 89.8763 152.737 89.2195Z" fill="white"/>
<defs>
<filter id="filter0_d_670_3194" x="0" y="4.97852" width="123.121" height="122.654" filterUnits="userSpaceOnUse" color-interpolation-filters="sRGB">
<feFlood flood-opacity="0" result="BackgroundImageFix"/>
<feColorMatrix in="SourceAlpha" type="matrix" values="0 0 0 0 0 0 0 0 0 0 0 0 0 0 0 0 0 0 127 0" result="hardAlpha"/>
<feOffset dy="11"/>
<feGaussianBlur stdDeviation="11"/>
<feColorMatrix type="matrix" values="0 0 0 0 0.397708 0 0 0 0 0.47749 0 0 0 0 0.575 0 0 0 0.27 0"/>
<feBlend mode="normal" in2="BackgroundImageFix" result="effect1_dropShadow_670_3194"/>
<feBlend mode="normal" in="SourceGraphic" in2="effect1_dropShadow_670_3194" result="shape"/>
</filter>
<filter id="filter1_d_670_3194" x="86.6328" y="0" width="123.832" height="123.654" filterUnits="userSpaceOnUse" color-interpolation-filters="sRGB">
<feFlood flood-opacity="0" result="BackgroundImageFix"/>
<feColorMatrix in="SourceAlpha" type="matrix" values="0 0 0 0 0 0 0 0 0 0 0 0 0 0 0 0 0 0 127 0" result="hardAlpha"/>
<feOffset dy="11"/>
<feGaussianBlur stdDeviation="11"/>
<feColorMatrix type="matrix" values="0 0 0 0 0.397708 0 0 0 0 0.47749 0 0 0 0 0.575 0 0 0 0.27 0"/>
<feBlend mode="normal" in2="BackgroundImageFix" result="effect1_dropShadow_670_3194"/>
<feBlend mode="normal" in="SourceGraphic" in2="effect1_dropShadow_670_3194" result="shape"/>
</filter>
<filter id="filter2_d_670_3194" x="57.3789" y="87.9746" width="120.686" height="119.775" filterUnits="userSpaceOnUse" color-interpolation-filters="sRGB">
<feFlood flood-opacity="0" result="BackgroundImageFix"/>
<feColorMatrix in="SourceAlpha" type="matrix" values="0 0 0 0 0 0 0 0 0 0 0 0 0 0 0 0 0 0 127 0" result="hardAlpha"/>
<feOffset dy="11"/>
<feGaussianBlur stdDeviation="11"/>
<feColorMatrix type="matrix" values="0 0 0 0 0.397708 0 0 0 0 0.47749 0 0 0 0 0.575 0 0 0 0.27 0"/>
<feBlend mode="normal" in2="BackgroundImageFix" result="effect1_dropShadow_670_3194"/>
<feBlend mode="normal" in="SourceGraphic" in2="effect1_dropShadow_670_3194" result="shape"/>
</filter>
<linearGradient id="paint0_linear_670_3194" x1="61.5352" y1="14.1592" x2="61.5352" y2="95.481" gradientUnits="userSpaceOnUse">
<stop stop-color="#FDFEFF"/>
<stop offset="0.9964" stop-color="#ECF0F5"/>
</linearGradient>
<linearGradient id="paint1_linear_670_3194" x1="148.523" y1="9.1575" x2="148.523" y2="91.5139" gradientUnits="userSpaceOnUse">
<stop stop-color="#FDFEFF"/>
<stop offset="0.9964" stop-color="#ECF0F5"/>
</linearGradient>
<linearGradient id="paint2_linear_670_3194" x1="117.696" y1="97.2218" x2="117.696" y2="175.567" gradientUnits="userSpaceOnUse">
<stop stop-color="#FDFEFF"/>
<stop offset="0.9964" stop-color="#ECF0F5"/>
</linearGradient>
<linearGradient id="paint3_linear_670_3194" x1="114.958" y1="60.9081" x2="114.958" y2="78.1" gradientUnits="userSpaceOnUse">
<stop stop-color="#808092"/>
<stop offset="1" stop-color="#9999A8"/>
</linearGradient>
<linearGradient id="paint4_linear_670_3194" x1="151.786" y1="77.7458" x2="117.121" y2="84.8021" gradientUnits="userSpaceOnUse">
<stop offset="0.00289017" stop-color="white" stop-opacity="0"/>
<stop offset="1" stop-color="white"/>
</linearGradient>
<linearGradient id="paint5_linear_670_3194" x1="72.6698" y1="77.7458" x2="112.805" y2="71.7725" gradientUnits="userSpaceOnUse">
<stop offset="0.00289017" stop-color="white" stop-opacity="0"/>
<stop offset="1" stop-color="white"/>
</linearGradient>
</defs>
</svg>
