<svg width="80" height="84" viewBox="0 0 80 84" fill="none" xmlns="http://www.w3.org/2000/svg">
<rect x="32.0004" y="60" width="3.99998" height="4" fill="#94A3B8"/>
<rect x="64.0002" y="48" width="3.99998" height="4" fill="#CBD5E1"/>
<rect x="60.0002" y="36" width="3.99998" height="3.99999" fill="#CBD5E1"/>
<rect x="60.0002" y="8" width="3.99998" height="3.99999" fill="#94A3B8"/>
<rect x="64.0002" y="8" width="3.99998" height="3.99999" fill="#94A3B8"/>
<rect x="64.0002" y="40" width="3.99998" height="3.99999" fill="#CBD5E1"/>
<rect x="60.0002" y="16" width="3.99998" height="3.99999" fill="#CBD5E1"/>
<rect x="40.0004" y="64" width="3.99998" height="3.99999" fill="#CBD5E1"/>
<rect x="68.0002" y="20" width="3.99998" height="3.99999" fill="#CBD5E1"/>
<rect x="60.0002" y="32" width="3.99998" height="3.99999" fill="#CBD5E1"/>
<rect x="68.0002" y="48" width="3.99998" height="4" fill="#CBD5E1"/>
<rect x="60.0002" y="20" width="3.99998" height="3.99999" fill="#CBD5E1"/>
<rect x="56.0002" y="28" width="3.99998" height="3.99999" fill="#CBD5E1"/>
<rect x="56.0002" y="12" width="3.99998" height="3.99999" fill="#94A3B8"/>
<rect x="64.0002" y="20" width="3.99998" height="3.99999" fill="#CBD5E1"/>
<rect x="64.0002" y="44" width="3.99998" height="3.99999" fill="#CBD5E1"/>
<rect x="44.0004" y="80" width="3.99998" height="3.99999" fill="#CBD5E1"/>
<rect x="44.0004" y="72" width="3.99998" height="3.99999" fill="#CBD5E1"/>
<rect x="60.0002" y="12" width="3.99998" height="3.99999" fill="#CBD5E1"/>
<path d="M32.0004 8H36.0003V12C34.4383 12 33.5625 12 32.0004 12V8Z" fill="#CBD5E1"/>
<rect x="36.0004" y="20" width="3.99998" height="3.99999" fill="#CBD5E1"/>
<rect x="12.0005" y="12" width="3.99998" height="3.99999" fill="#CBD5E1"/>
<rect x="20.0005" y="4" width="3.99998" height="3.99999" fill="#CBD5E1"/>
<rect x="24.0005" y="4" width="3.99998" height="3.99999" fill="#CBD5E1"/>
<rect x="28.0004" y="4" width="3.99998" height="3.99999" fill="#CBD5E1"/>
<rect x="16.0005" y="8" width="3.99998" height="3.99999" fill="#CBD5E1"/>
<rect x="16.0005" y="4" width="3.99998" height="3.99999" fill="#94A3B8"/>
<rect x="12.0005" y="8" width="3.99998" height="3.99999" fill="#94A3B8"/>
<rect x="12.0005" y="16" width="3.99998" height="3.99999" fill="#CBD5E1"/>
<rect x="12.0005" y="20" width="3.99998" height="3.99999" fill="#CBD5E1"/>
<rect x="16.0005" y="20" width="3.99998" height="3.99999" fill="#CBD5E1"/>
<rect x="16.0005" y="24" width="3.99998" height="3.99999" fill="#CBD5E1"/>
<rect x="20.0005" y="24" width="3.99998" height="3.99999" fill="#CBD5E1"/>
<rect x="24.0005" y="24" width="3.99998" height="3.99999" fill="#CBD5E1"/>
<rect x="32.0004" y="24" width="3.99998" height="3.99999" fill="#CBD5E1"/>
<rect x="28.0004" y="24" width="3.99998" height="3.99999" fill="#CBD5E1"/>
<rect x="28.0004" y="28" width="3.99998" height="3.99999" fill="#CBD5E1"/>
<rect x="48.0004" y="44" width="3.99998" height="3.99999" fill="#CBD5E1"/>
<rect x="40.0004" y="24" width="3.99998" height="3.99999" fill="#CBD5E1"/>
<rect x="56.0002" y="32" width="3.99998" height="3.99999" fill="#CBD5E1"/>
<rect x="36.0004" y="24" width="3.99998" height="3.99999" fill="#CBD5E1"/>
<rect x="64.0002" y="56" width="3.99998" height="3.99999" fill="#CBD5E1"/>
<rect x="32.0004" y="20" width="3.99998" height="3.99999" fill="#CBD5E1"/>
<rect x="68.0002" y="56" width="3.99998" height="3.99999" fill="#CBD5E1"/>
<rect x="52.0002" y="24" width="3.99998" height="3.99999" fill="#CBD5E1"/>
<rect x="48.0004" y="24" width="3.99998" height="3.99999" fill="#CBD5E1"/>
<rect x="44.0004" y="24" width="3.99998" height="3.99999" fill="#CBD5E1"/>
<rect x="36.0004" y="28" width="3.99998" height="3.99999" fill="#CBD5E1"/>
<rect x="36.0004" y="36" width="3.99998" height="3.99999" fill="#CBD5E1"/>
<rect x="32.0004" y="32" width="3.99998" height="3.99999" fill="#CBD5E1"/>
<rect x="32.0004" y="44" width="3.99998" height="3.99999" fill="#CBD5E1"/>
<rect x="32.0004" y="48" width="3.99998" height="4" fill="#CBD5E1"/>
<rect x="32.0004" y="40" width="3.99998" height="3.99999" fill="#CBD5E1"/>
<rect x="40.0004" y="52" width="3.99998" height="3.99999" fill="#CBD5E1"/>
<rect x="48.0004" y="40" width="3.99998" height="3.99999" fill="#CBD5E1"/>
<rect x="48.0004" y="36" width="3.99998" height="3.99999" fill="#CBD5E1"/>
<rect x="40.0004" y="56" width="3.99998" height="3.99999" fill="#CBD5E1"/>
<rect x="40.0004" y="48" width="3.99998" height="4" fill="#CBD5E1"/>
<rect x="44.0004" y="48" width="3.99998" height="4" fill="#CBD5E1"/>
<rect x="52.0002" y="48" width="3.99998" height="4" fill="#CBD5E1"/>
<rect x="48.0004" y="56" width="3.99998" height="3.99999" fill="#CBD5E1"/>
<rect x="56.0002" y="52" width="3.99998" height="3.99999" fill="#CBD5E1"/>
<rect x="60.0002" y="52" width="3.99998" height="3.99999" fill="#CBD5E1"/>
<rect x="68.0002" y="52" width="3.99998" height="3.99999" fill="#CBD5E1"/>
<rect x="64.0002" y="52" width="3.99998" height="3.99999" fill="#CBD5E1"/>
<rect x="52.0002" y="56" width="3.99998" height="3.99999" fill="#CBD5E1"/>
<rect x="60.0002" y="48" width="3.99998" height="4" fill="#CBD5E1"/>
<rect x="56.0002" y="48" width="3.99998" height="4" fill="#CBD5E1"/>
<rect x="44.0004" y="56" width="3.99998" height="3.99999" fill="#CBD5E1"/>
<rect x="48.0004" y="52" width="3.99998" height="3.99999" fill="#CBD5E1"/>
<rect x="44.0004" y="52" width="3.99998" height="3.99999" fill="#CBD5E1"/>
<rect x="60.0002" y="44" width="3.99998" height="3.99999" fill="#CBD5E1"/>
<rect x="52.0002" y="44" width="3.99998" height="3.99999" fill="#CBD5E1"/>
<rect x="56.0002" y="44" width="3.99998" height="3.99999" fill="#CBD5E1"/>
<rect x="48.0004" y="48" width="3.99998" height="4" fill="#CBD5E1"/>
<rect x="40.0004" y="44" width="3.99998" height="3.99999" fill="#CBD5E1"/>
<rect x="44.0004" y="44" width="3.99998" height="3.99999" fill="#CBD5E1"/>
<rect x="72.0002" y="20" width="3.99998" height="3.99999" fill="#CBD5E1"/>
<rect x="60.0002" y="40" width="3.99998" height="3.99999" fill="#CBD5E1"/>
<rect x="68.0002" y="16" width="3.99998" height="3.99999" fill="#CBD5E1"/>
<rect x="64.0002" y="16" width="3.99998" height="3.99999" fill="#CBD5E1"/>
<rect x="64.0002" y="12" width="3.99998" height="3.99999" fill="#CBD5E1"/>
<rect x="68.0002" y="12" width="3.99998" height="3.99999" fill="#CBD5E1"/>
<rect x="72.0002" y="16" width="3.99998" height="3.99999" fill="#CBD5E1"/>
<rect x="72.0002" y="12" width="3.99998" height="3.99999" fill="#CBD5E1"/>
<rect x="68.0002" y="8" width="3.99998" height="3.99999" fill="#CBD5E1"/>
<rect x="36.0004" y="52" width="3.99998" height="3.99999" fill="#CBD5E1"/>
<rect x="28.0004" y="72" width="3.99998" height="3.99999" fill="#CBD5E1"/>
<rect x="36.0004" y="76" width="3.99998" height="3.99999" fill="#E2E8F0"/>
<rect x="32.0004" y="76" width="3.99998" height="3.99999" fill="#E2E8F0"/>
<rect x="36.0004" y="68" width="3.99998" height="3.99999" fill="#E2E8F0"/>
<rect x="32.0004" y="68" width="3.99998" height="3.99999" fill="#E2E8F0"/>
<rect x="40.0004" y="80" width="3.99998" height="3.99999" fill="#E2E8F0"/>
<rect x="32.0004" y="80" width="3.99998" height="3.99999" fill="#E2E8F0"/>
<rect x="36.0004" y="72" width="3.99998" height="3.99999" fill="#E2E8F0"/>
<rect x="40.0004" y="68" width="3.99998" height="3.99999" fill="#E2E8F0"/>
<rect x="40.0004" y="76" width="3.99998" height="3.99999" fill="#E2E8F0"/>
<rect x="24.0005" y="80" width="3.99998" height="3.99999" fill="#CBD5E1"/>
<rect x="32.0004" y="52" width="3.99998" height="3.99999" fill="#CBD5E1"/>
<rect x="24.0005" y="76" width="3.99998" height="3.99999" fill="#CBD5E1"/>
<rect x="28.0004" y="80" width="3.99998" height="3.99999" fill="#CBD5E1"/>
<rect x="28.0004" y="68" width="3.99998" height="3.99999" fill="#CBD5E1"/>
<rect x="28.0004" y="64" width="3.99998" height="3.99999" fill="#94A3B8"/>
<rect x="28.0004" y="60" width="3.99998" height="4" fill="#94A3B8"/>
<rect x="24.0005" y="72" width="3.99998" height="3.99999" fill="#CBD5E1"/>
<rect x="24.0005" y="68" width="3.99998" height="3.99999" fill="#94A3B8"/>
<rect x="36.0004" y="48" width="3.99998" height="4" fill="#CBD5E1"/>
<rect x="36.0004" y="44" width="3.99998" height="3.99999" fill="#CBD5E1"/>
<rect x="36.0004" y="40" width="3.99998" height="3.99999" fill="#CBD5E1"/>
<rect x="32.0004" y="36" width="3.99998" height="3.99999" fill="#CBD5E1"/>
<rect x="32.0004" y="28" width="3.99998" height="3.99999" fill="#CBD5E1"/>
<rect x="40.0004" y="28" width="3.99998" height="3.99999" fill="#CBD5E1"/>
<rect x="52.0002" y="32" width="3.99998" height="3.99999" fill="#CBD5E1"/>
<rect x="48.0004" y="32" width="3.99998" height="3.99999" fill="#CBD5E1"/>
<rect x="44.0004" y="32" width="3.99998" height="3.99999" fill="#CBD5E1"/>
<rect x="40.0004" y="32" width="3.99998" height="3.99999" fill="#CBD5E1"/>
<rect x="52.0002" y="28" width="3.99998" height="3.99999" fill="#CBD5E1"/>
<rect x="48.0004" y="28" width="3.99998" height="3.99999" fill="#CBD5E1"/>
<rect x="44.0004" y="28" width="3.99998" height="3.99999" fill="#CBD5E1"/>
<rect x="36.0004" y="32" width="3.99998" height="3.99999" fill="#CBD5E1"/>
<rect x="56.0002" y="16" width="3.99998" height="3.99999" fill="#94A3B8"/>
<rect x="64.0002" y="24" width="3.99998" height="3.99999" fill="#CBD5E1"/>
<rect x="60.0002" y="24" width="3.99998" height="3.99999" fill="#94A3B8"/>
<rect x="72.0002" y="52" width="3.99998" height="3.99999" fill="#94A3B8"/>
<rect x="56.0002" y="20" width="3.99998" height="3.99999" fill="#94A3B8"/>
<rect x="32.0004" y="12" width="3.99998" height="3.99999" fill="#CBD5E1"/>
<rect x="32.0004" y="16" width="3.99998" height="3.99999" fill="#CBD5E1"/>
<rect x="36.0004" y="16" width="3.99998" height="3.99999" fill="#CBD5E1"/>
<rect x="28.0004" y="8" width="3.99998" height="3.99999" fill="#CBD5E1"/>
<rect x="44.0004" y="68" width="3.99998" height="3.99999" fill="#CBD5E1"/>
<rect x="36.0004" y="64" width="3.99998" height="3.99999" fill="#CBD5E1"/>
<rect x="44.0004" y="64" width="3.99998" height="3.99999" fill="#CBD5E1"/>
<rect x="32.0004" y="64" width="3.99998" height="3.99999" fill="#CBD5E1"/>
<rect x="36.0004" y="80" width="3.99998" height="3.99999" fill="#E2E8F0"/>
<path d="M27.999 76H31.999V80H27.999V76Z" fill="#475569"/>
<path d="M31.999 72H35.999V76H31.999V72Z" fill="#475569"/>
<path d="M39.9995 72H43.9995V76H39.9995V72Z" fill="#475569"/>
<path d="M43.999 76H47.999V80H43.999V76Z" fill="#475569"/>
<rect x="60" y="56" width="3.99998" height="3.99999" fill="#475569"/>
<rect x="55.999" y="56" width="3.99998" height="3.99999" fill="#475569"/>
<rect x="52" y="52" width="3.99998" height="3.99999" fill="#475569"/>
<rect x="44" y="40" width="3.99998" height="3.99999" fill="#475569"/>
<rect x="52.0005" y="40" width="3.99998" height="3.99999" fill="#475569"/>
<rect x="56.0005" y="40" width="3.99998" height="3.99999" fill="#475569"/>
<rect x="56.0005" y="36" width="3.99998" height="3.99999" fill="#475569"/>
<rect x="40.0005" y="40" width="3.99998" height="3.99999" fill="#475569"/>
<rect x="44" y="36" width="3.99998" height="3.99999" fill="#475569"/>
<rect x="52.0005" y="36" width="3.99998" height="3.99999" fill="white"/>
<rect x="52.0005" y="36" width="3.99998" height="3.99999" fill="white"/>
<rect x="40.0005" y="36" width="3.99998" height="3.99999" fill="white"/>
<rect x="40.0005" y="36" width="3.99998" height="3.99999" fill="white"/>
<rect x="44" y="40" width="3.99998" height="3.99999" fill="#475569"/>
<rect x="52.0005" y="40" width="3.99998" height="3.99999" fill="#475569"/>
<rect x="56.0005" y="40" width="3.99998" height="3.99999" fill="#475569"/>
<rect x="56.0005" y="36" width="3.99998" height="3.99999" fill="#475569"/>
<rect x="40.0005" y="40" width="3.99998" height="3.99999" fill="#475569"/>
<rect x="44" y="36" width="3.99998" height="3.99999" fill="#475569"/>
<rect x="52.0005" y="36" width="3.99998" height="3.99999" fill="white"/>
<rect x="52.0005" y="36" width="3.99998" height="3.99999" fill="white"/>
<rect x="40.0005" y="36" width="3.99998" height="3.99999" fill="white"/>
<rect x="40.0005" y="36" width="3.99998" height="3.99999" fill="white"/>
<rect x="71.9995" y="56" width="3.99998" height="3.99999" fill="#DDD6FE"/>
<rect x="12.0005" y="72" width="3.99998" height="3.99999" fill="#475569"/>
<rect x="12.0005" y="76" width="3.99998" height="3.99999" fill="#475569"/>
<rect x="20" y="76" width="3.99998" height="3.99999" fill="#475569"/>
<rect x="20" y="72" width="3.99998" height="3.99999" fill="#475569"/>
<rect x="23.9995" y="56" width="3.99998" height="3.99999" fill="#475569"/>
<rect x="28.0005" y="56" width="3.99998" height="3.99999" fill="#475569"/>
<rect x="28.0005" y="52" width="3.99998" height="3.99999" fill="#475569"/>
<rect x="28.0005" y="36" width="3.99998" height="3.99999" fill="#475569"/>
<rect x="28.0005" y="32" width="3.99998" height="3.99999" fill="#475569"/>
<rect x="28.0005" y="32" width="3.99998" height="3.99999" fill="#475569"/>
<rect x="20" y="28" width="3.99998" height="3.99998" fill="#475569"/>
<rect x="23.9995" y="28" width="3.99998" height="3.99998" fill="#475569"/>
<rect x="28.0005" y="40" width="3.99998" height="3.99999" fill="#475569"/>
<rect x="28.0005" y="44" width="3.99998" height="3.99999" fill="#475569"/>
<rect x="28.0005" y="48" width="3.99998" height="3.99999" fill="#475569"/>
<rect x="20" y="64" width="3.99998" height="3.99999" fill="#475569"/>
<rect x="20" y="68" width="3.99998" height="3.99999" fill="#475569"/>
<rect y="52" width="3.99998" height="3.99999" fill="#475569"/>
<rect x="3.99951" y="60" width="3.99998" height="3.99998" fill="#475569"/>
<rect y="56" width="3.99998" height="3.99999" fill="#475569"/>
<rect y="48" width="3.99998" height="3.99999" fill="#475569"/>
<rect x="16" y="28" width="3.99998" height="3.99998" fill="#475569"/>
<rect x="12.0005" y="24" width="3.99998" height="3.99998" fill="#475569"/>
<rect x="7.99951" y="20" width="3.99998" height="3.99999" fill="#475569"/>
<rect x="7.99951" y="16" width="3.99998" height="3.99999" fill="#475569"/>
<rect x="7.99951" y="12" width="3.99998" height="3.99999" fill="#475569"/>
<rect x="55.999" y="24" width="3.99998" height="3.99998" fill="#475569"/>
<rect x="16" width="3.99998" height="3.99999" fill="#475569"/>
<rect x="20" width="3.99998" height="3.99999" fill="#475569"/>
<rect x="32" y="4" width="3.99998" height="3.99999" fill="#475569"/>
<rect x="39.9995" y="16" width="3.99998" height="3.99999" fill="#475569"/>
<rect x="55.999" y="8" width="3.99998" height="3.99999" fill="#475569"/>
<rect x="60" y="4" width="3.99998" height="3.99999" fill="#475569"/>
<rect x="55.999" y="4" width="3.99998" height="3.99999" fill="#475569"/>
<rect x="64" y="4" width="3.99998" height="3.99999" fill="#475569"/>
<rect x="67.9995" y="4" width="3.99998" height="3.99999" fill="#475569"/>
<rect x="76" y="12" width="3.99998" height="3.99999" fill="#475569"/>
<rect x="71.9995" y="24" width="3.99998" height="3.99998" fill="#475569"/>
<rect x="64" y="28" width="3.99998" height="3.99998" fill="#475569"/>
<rect x="60" y="28" width="3.99998" height="3.99998" fill="#475569"/>
<rect x="64" y="32" width="3.99998" height="3.99999" fill="#475569"/>
<rect x="48" y="60" width="3.99998" height="3.99998" fill="#475569"/>
<rect x="76" y="60" width="3.99998" height="3.99998" fill="#475569"/>
<rect x="71.9995" y="60" width="3.99998" height="3.99998" fill="#475569"/>
<rect x="52" y="12" width="3.99998" height="3.99999" fill="#475569"/>
<rect x="28.0005" y="16" width="3.99998" height="3.99999" fill="#475569"/>
<rect x="28.0005" y="12" width="3.99998" height="3.99999" fill="#475569"/>
<rect x="23.9995" y="8" width="3.99998" height="3.99999" fill="#475569"/>
<rect x="20" y="8" width="3.99998" height="3.99999" fill="#475569"/>
<rect x="16" y="12" width="3.99998" height="3.99999" fill="#475569"/>
<rect x="16" y="16" width="3.99998" height="3.99999" fill="#475569"/>
<rect x="20" y="20" width="3.99998" height="3.99999" fill="#475569"/>
<rect x="23.9995" y="20" width="3.99998" height="3.99999" fill="#475569"/>
<rect x="23.9995" width="3.99998" height="3.99999" fill="#475569"/>
<rect x="28.0005" width="3.99998" height="3.99999" fill="#475569"/>
<rect x="3.99951" y="64" width="3.99998" height="3.99999" fill="#475569"/>
<rect x="12.0005" y="48" width="3.99998" height="3.99999" fill="#475569"/>
<rect x="7.99951" y="52" width="3.99998" height="3.99999" fill="#475569"/>
<path d="M7.99951 44H11.9995V48H7.99951V44Z" fill="#475569"/>
<rect x="7.99951" y="68" width="3.99998" height="3.99999" fill="#475569"/>
<rect x="12.0005" y="72" width="3.99998" height="3.99999" fill="#475569"/>
<path d="M16 80H20V84H16V80Z" fill="#475569"/>
<rect x="12.0005" y="80" width="3.99998" height="3.99998" fill="#475569"/>
<rect x="3.99951" y="44" width="3.99998" height="3.99999" fill="#475569"/>
<rect x="28.0005" y="52" width="3.99998" height="3.99999" fill="#475569"/>
<rect x="28.0005" y="36" width="3.99998" height="3.99999" fill="#475569"/>
<rect x="28.0005" y="32" width="3.99998" height="3.99999" fill="#475569"/>
<rect x="28.0005" y="32" width="3.99998" height="3.99999" fill="#475569"/>
<rect x="20" y="28" width="3.99998" height="3.99998" fill="#475569"/>
<rect x="23.9995" y="28" width="3.99998" height="3.99998" fill="#475569"/>
<rect x="28.0005" y="40" width="3.99998" height="3.99999" fill="#475569"/>
<rect x="28.0005" y="44" width="3.99998" height="3.99999" fill="#475569"/>
<rect x="28.0005" y="48" width="3.99998" height="3.99999" fill="#475569"/>
<rect x="23.9995" y="60" width="3.99998" height="3.99998" fill="#475569"/>
<rect x="23.9995" y="64" width="3.99998" height="3.99999" fill="#475569"/>
<rect x="20" y="64" width="3.99998" height="3.99999" fill="#475569"/>
<rect x="20" y="68" width="3.99998" height="3.99999" fill="#475569"/>
<rect y="52" width="3.99998" height="3.99999" fill="#475569"/>
<rect y="60" width="3.99998" height="3.99998" fill="#475569"/>
<rect y="56" width="3.99998" height="3.99999" fill="#475569"/>
<rect y="48" width="3.99998" height="3.99999" fill="#475569"/>
<rect x="16" y="28" width="3.99998" height="3.99998" fill="#475569"/>
<rect x="12.0005" y="24" width="3.99998" height="3.99998" fill="#475569"/>
<rect x="7.99951" y="20" width="3.99998" height="3.99999" fill="#475569"/>
<rect x="7.99951" y="16" width="3.99998" height="3.99999" fill="#475569"/>
<rect x="7.99951" y="12" width="3.99998" height="3.99999" fill="#475569"/>
<rect x="7.99951" y="8" width="3.99998" height="3.99999" fill="#475569"/>
<rect x="12.0005" y="4" width="3.99998" height="3.99999" fill="#475569"/>
<rect x="16" width="3.99998" height="3.99999" fill="#475569"/>
<rect x="20" width="3.99998" height="3.99999" fill="#475569"/>
<rect x="32" width="3.99998" height="3.99999" fill="#475569"/>
<rect x="36" y="8" width="3.99998" height="3.99999" fill="#475569"/>
<rect x="39.9995" y="20" width="3.99998" height="3.99999" fill="#475569"/>
<rect x="44" y="20" width="3.99998" height="3.99999" fill="#475569"/>
<rect x="48" y="20" width="3.99998" height="3.99999" fill="#475569"/>
<rect x="55.999" y="8" width="3.99998" height="3.99999" fill="#475569"/>
<rect x="60" y="4" width="3.99998" height="3.99999" fill="#475569"/>
<rect x="55.999" y="4" width="3.99998" height="3.99999" fill="#475569"/>
<rect x="64" y="4" width="3.99998" height="3.99999" fill="#475569"/>
<rect x="76" y="16" width="3.99998" height="3.99999" fill="#475569"/>
<rect x="76" y="20" width="3.99998" height="3.99999" fill="#475569"/>
<rect x="67.9995" y="24" width="3.99998" height="3.99998" fill="#475569"/>
<rect x="64" y="36" width="3.99998" height="3.99999" fill="#475569"/>
<rect x="32" y="56" width="3.99998" height="3.99999" fill="#475569"/>
<rect x="36" y="56" width="3.99998" height="3.99999" fill="#475569"/>
<rect x="44" y="60" width="3.99998" height="3.99998" fill="#475569"/>
<path d="M60 60H64V64H60V60Z" fill="#475569"/>
<path d="M64 60H68V64H64V60Z" fill="#475569"/>
<rect x="67.9995" y="60" width="3.99998" height="3.99998" fill="#475569"/>
<rect x="76" y="56" width="3.99998" height="3.99999" fill="#475569"/>
<rect x="71.9995" y="8" width="3.99998" height="3.99999" fill="#475569"/>
<path d="M67.9995 40H71.9995V44H67.9995V40Z" fill="#475569"/>
<rect x="67.9995" y="44" width="3.99998" height="3.99999" fill="#475569"/>
<rect x="71.9995" y="48" width="3.99998" height="3.99999" fill="#475569"/>
<path d="M76 52H80V56H76V52Z" fill="#475569"/>
<rect x="52" y="20" width="3.99998" height="3.99999" fill="#475569"/>
<path d="M55.999 60H59.999V64H55.999V60Z" fill="#475569"/>
<path d="M52 60H56V64H52V60Z" fill="#475569"/>
<rect x="39.9995" y="60" width="3.99998" height="3.99998" fill="#475569"/>
<path d="M36 60H40V64H36V60Z" fill="#475569"/>
<rect x="52" y="12" width="3.99998" height="3.99999" fill="#475569"/>
<rect x="52" y="16" width="3.99998" height="3.99999" fill="#475569"/>
<rect x="36" y="12" width="3.99998" height="3.99999" fill="#475569"/>
<rect x="28.0005" y="20" width="3.99998" height="3.99999" fill="#475569"/>
<rect x="23.9995" width="3.99998" height="3.99999" fill="#475569"/>
<rect x="28.0005" width="3.99998" height="3.99999" fill="#475569"/>
<rect x="48" y="76" width="3.99998" height="3.99999" fill="#475569"/>
<path d="M48 72H52V76H48V72Z" fill="#475569"/>
<rect x="20" y="80" width="3.99998" height="3.99998" fill="#475569"/>
<rect x="48" y="80" width="3.99998" height="3.99998" fill="#475569"/>
<rect x="48" y="68" width="3.99998" height="3.99999" fill="#475569"/>
<rect x="48" y="64" width="3.99998" height="3.99999" fill="#475569"/>
<rect x="23.9995" y="12" width="3.99998" height="3.99999" fill="#DDD6FE"/>
<rect x="23.9995" y="16" width="3.99998" height="3.99999" fill="#DDD6FE"/>
<rect x="20" y="16" width="3.99998" height="3.99999" fill="#E9D5FF"/>
<rect x="20" y="12" width="3.99998" height="3.99999" fill="#E9D5FF"/>
<rect x="24" y="36" width="4" height="4" fill="black"/>
<rect x="28.0005" y="36" width="4" height="4" fill="black"/>
<rect x="31.9995" y="36" width="4" height="4" fill="black"/>
<rect x="36" y="36" width="4" height="4" fill="black"/>
<rect x="40.0005" y="36" width="4" height="4" fill="black"/>
<rect x="43.9995" y="36" width="4" height="4" fill="black"/>
<rect x="48" y="36" width="4" height="4" fill="black"/>
<rect x="52.0005" y="36" width="4" height="4" fill="black"/>
<rect x="55.9995" y="36" width="4" height="4" fill="black"/>
<rect x="60" y="36" width="4" height="4" fill="black"/>
<rect x="60" y="40" width="4" height="4" fill="black"/>
<rect x="55.9995" y="40" width="4" height="4" fill="black"/>
<rect x="52.0005" y="40" width="4" height="4" fill="black"/>
<rect x="43.9995" y="40" width="4" height="4" fill="black"/>
<rect x="36" y="40" width="4" height="4" fill="black"/>
<rect x="40.0005" y="40" width="4" height="4" fill="black"/>
</svg>
